<?xml version="1.0" encoding="utf-8"?>
<!-- Generator: Adobe Illustrator 16.0.4, SVG Export Plug-In . SVG Version: 6.00 Build 0)  -->
<!DOCTYPE svg PUBLIC "-//W3C//DTD SVG 1.1//EN" "http://www.w3.org/Graphics/SVG/1.1/DTD/svg11.dtd">
<svg version="1.1" id="Layer_1" xmlns="http://www.w3.org/2000/svg" xmlns:xlink="http://www.w3.org/1999/xlink" x="0px" y="0px"
	 width="190px" height="35px" viewBox="0 0 190 35" enable-background="new 0 0 190 35" xml:space="preserve">
<g>
	<path fill="#4D4D4D" d="M0.352,10.488h2.461L2.69,12.615l0.07,0.053c0.855-1.617,2.695-2.426,5.52-2.426
		c2.496,0,4.213,0.633,5.15,1.898s1.406,3.598,1.406,6.996c0,3.152-0.475,5.341-1.424,6.565c-0.949,1.224-2.637,1.837-5.062,1.837
		c-2.766,0-4.594-0.744-5.484-2.231H2.813v9.192H0.352V10.488L0.352,10.488z M7.594,12.281c-1.969,0-3.252,0.425-3.85,1.274
		c-0.598,0.849-0.896,2.675-0.896,5.476c0,2.59,0.322,4.313,0.967,5.177C4.46,25.07,5.754,25.5,7.7,25.5
		c1.852,0,3.073-0.416,3.665-1.248c0.592-0.832,0.888-2.549,0.888-5.15c0-2.857-0.287-4.709-0.861-5.555
		C10.818,12.703,9.551,12.281,7.594,12.281z"/>
	<path fill="#4D4D4D" d="M21.182,3.299v9.264l0.053,0.035c0.621-1.57,2.355-2.355,5.203-2.355c4.219,0,6.328,1.875,6.328,5.625
		v0.686v10.74h-2.461v-10.74v-0.475c0-2.531-1.295-3.797-3.885-3.797c-2.086,0-3.48,0.372-4.184,1.116
		c-0.704,0.744-1.055,2.224-1.055,4.438v9.457H18.72V3.299H21.182z"/>
	<path fill="#4D4D4D" d="M49.166,10.488l-4.764,17.771c-0.668,2.509-1.409,4.23-2.224,5.168c-0.815,0.938-1.978,1.406-3.489,1.406
		c-0.305,0-0.697-0.041-1.178-0.123v-2.039c0.34,0.07,0.627,0.111,0.861,0.123c1.324,0.07,2.309-1.002,2.953-3.217l0.475-1.652
		c0.012-0.059,0.064-0.271,0.158-0.633h-0.932l-6.082-16.805h2.619l2.584,7.488l1.301,3.728l0.633,1.881l0.65,1.863h0.07
		l0.457-1.863l0.439-1.881l0.949-3.728l1.898-7.488L49.166,10.488L49.166,10.488z"/>
	<path fill="#4D4D4D" d="M60.135,10.488v2.039h-6.469v10.284c0,1.793,0.797,2.688,2.391,2.688c1.582,0,2.373-0.804,2.373-2.408
		l0.018-0.825l0.035-0.933h2.285l0.018,1.248c0,3.305-1.57,4.957-4.711,4.957c-3.246,0-4.869-1.377-4.869-4.131v-0.599V12.526h-2.32
		v-2.039h2.32V6.444h2.461v4.043L60.135,10.488L60.135,10.488z"/>
	<path fill="#4D4D4D" d="M69.891,10.242c3.105,0,5.121,0.539,6.047,1.617c0.926,1.078,1.389,3.422,1.389,7.032
		c0,3.608-0.463,5.952-1.389,7.03c-0.926,1.078-2.941,1.617-6.047,1.617c-3.094,0-5.104-0.539-6.029-1.617
		c-0.925-1.078-1.389-3.422-1.389-7.03s0.463-5.954,1.389-7.032C64.788,10.781,66.797,10.242,69.891,10.242z M69.891,12.281
		c-2.18,0-3.53,0.354-4.052,1.062s-0.782,2.558-0.782,5.546c0,2.988,0.261,4.838,0.782,5.547s1.872,1.062,4.052,1.062
		c2.191,0,3.548-0.354,4.069-1.062s0.782-2.559,0.782-5.547c0-2.988-0.261-4.837-0.782-5.546S72.082,12.281,69.891,12.281z"/>
	<path fill="#4D4D4D" d="M80.613,10.488h12.111v2.391l-10.02,12.375h10.02v2.039H79.77v-2.338l10.055-12.428h-9.211L80.613,10.488
		L80.613,10.488z"/>
	<path fill="#4D4D4D" d="M102.621,10.242c3.104,0,5.121,0.539,6.047,1.617c0.926,1.078,1.389,3.422,1.389,7.032
		c0,3.608-0.463,5.952-1.389,7.03s-2.941,1.617-6.047,1.617c-3.094,0-5.104-0.539-6.029-1.617c-0.925-1.078-1.389-3.422-1.389-7.03
		s0.463-5.954,1.389-7.032C97.518,10.781,99.527,10.242,102.621,10.242z M102.621,12.281c-2.18,0-3.53,0.354-4.053,1.062
		c-0.521,0.709-0.781,2.558-0.781,5.546c0,2.988,0.261,4.838,0.781,5.547c0.521,0.709,1.873,1.062,4.053,1.062
		c2.191,0,3.548-0.354,4.068-1.062c0.521-0.709,0.781-2.559,0.781-5.547c0-2.988-0.261-4.837-0.781-5.546
		C106.169,12.635,104.812,12.281,102.621,12.281z"/>
	<path fill="#4D4D4D" d="M113.889,10.488h2.461l-0.053,2.531l0.053,0.053c0.949-1.887,2.777-2.83,5.484-2.83
		c2.848,0,4.576,0.943,5.186,2.83h0.07c1.055-1.887,2.982-2.83,5.783-2.83c3.961,0,5.941,2.021,5.941,6.064v10.986h-2.461V16.077
		c0-1.477-0.266-2.479-0.791-3.006c-0.527-0.527-1.523-0.791-2.988-0.791c-1.945,0-3.266,0.366-3.955,1.099
		c-0.691,0.733-1.037,2.13-1.037,4.192v9.721h-2.461V16.306l-0.035-0.773c0-2.168-1.236-3.252-3.709-3.252
		c-3.352,0-5.027,1.822-5.027,5.467v9.545h-2.461V10.488L113.889,10.488z"/>
	<path fill="#6E9E75" d="M175.052,1.582c-0.036-0.344-0.12-0.676-0.252-0.995c-1.021-0.854-5.766,3.671-6.217,4.33
		c-1.948,2.847-2.447,7.223-1.603,10.665c0.373,1.523,5.482-1.883,5.987-2.415C175.425,10.584,175.829,4.879,175.052,1.582
		C175.01,1.405,175.223,2.307,175.052,1.582z"/>
	<path fill="#6E9E75" d="M188.465,21.854c0.311-0.152,0.592-0.347,0.85-0.578c0.453-1.25-5.42-4.163-6.193-4.361
		c-3.34-0.858-7.623,0.168-10.569,2.141c-1.305,0.869,3.644,4.508,4.317,4.803C180.134,25.277,185.631,23.709,188.465,21.854
		C188.616,21.752,187.841,22.259,188.465,21.854z"/>
	<g>
		<polygon fill="#4D4D4D" points="144.488,25.725 144.484,25.719 144.484,25.719 		"/>
		<path fill="#4D4D4D" d="M189.686,20.561c-0.828-1.567-5.699-3.94-6.44-4.131c-3.28-0.844-7.808,0.09-10.972,2.208
			c-0.014,0.008-0.021,0.021-0.031,0.028c-0.959,0.424-2.562,0.989-3.459,1.397c-1.662,0.756-2.82,1.093-4.073,1.896
			c0.599-0.812,2.833-3.906,3.042-4.287c0.202-0.369,0.492-0.803,0.799-1.092c0.062-0.06,0.555-0.394,0.889-0.612
			c1.681-0.72,3.576-1.996,3.896-2.332c2.649-2.789,2.926-8.636,2.272-11.636l-0.062-0.379c-0.043-0.379-0.139-0.872-0.282-1.224
			l-0.047-0.114l-0.095-0.08C175,0.1,174.786-0.022,174.461-0.022c-1.764,0-5.92,4.115-6.29,4.655
			c-1.756,2.566-2.458,6.465-1.876,10.003c-0.055,0.24-0.05,0.547-0.084,0.669c-0.154,0.558-0.604,1.091-0.863,1.605
			c-0.281,0.559-0.639,1.1-0.955,1.64c-0.629,1.067-1.34,2.079-2.326,2.847c-1.355,1.052-2.741,1.932-4.336,2.604
			c-0.623,0.266-5.402,1.455-7.36,1.455c-1.81,0-3.044-0.389-3.712-0.965c-0.025-0.028-0.059-0.053-0.08-0.082
			c-0.568-0.729-0.854-2.414-0.854-5.062h12.094v-1.316c0-3.199-0.479-5.297-1.44-6.293c-0.961-0.996-2.987-1.494-6.082-1.494
			c-2.836,0-4.739,0.574-5.713,1.723c-0.974,1.149-1.459,3.398-1.459,6.75c0,3.505,0.457,5.833,1.362,7.004
			c1.604,1.877,4.459,1.891,6.703,1.891c1.688,0.002,5.522-0.606,8.662-1.688c0.596-0.204,1.188-0.404,1.776-0.628
			c1.779-0.674,3.547-1.375,5.327-2.043c0.895-0.335,1.788-0.662,2.688-0.974c0.527-0.184,1.094-0.404,1.64-0.521
			c0.271-0.057,0.567-0.129,0.844-0.155c0.399-0.039,0.767,0.041,1.136,0.1c1.293,1.269,3.049,2.457,3.406,2.611
			c0.904,0.396,1.998,0.596,3.253,0.596c1.707,0,3.406-0.352,5.013-0.915c0.735-0.259,1.455-0.563,2.15-0.916
			c0.309-0.155,0.604-0.358,0.917-0.497c0.578-0.255,1.179-0.503,1.647-0.934l0.094-0.084l0.042-0.115
			C189.852,21.257,189.891,20.951,189.686,20.561z M172.607,12.823c-0.369,0.388-2.953,2.093-4.431,2.539
			c0.025-0.094,0.048-0.193,0.072-0.303c0.289-1.323,1.169-5.314,6.31-13.385l0.018,0.072
			C175.275,4.785,174.98,10.324,172.607,12.823z M168.996,5.199c0.336-0.492,3.021-3.029,4.629-3.917
			c-4.938,7.783-5.971,11.848-6.309,13.37C166.732,11.347,167.373,7.569,168.996,5.199z M146.646,13.239
			c0.592-0.639,1.883-0.958,3.875-0.958c1.979,0,3.271,0.271,3.867,0.817c0.598,0.545,0.896,1.726,0.896,3.542l0.018,0.791h-9.545
			C145.758,15.275,146.055,13.878,146.646,13.239z M182.994,17.396c0.835,0.214,4.304,2.081,5.463,3.168
			c-8.852-2.051-13.581-1.653-15.111-1.409c2.133-1.284,4.777-2.049,7.213-2.049C181.427,17.106,182.247,17.204,182.994,17.396z
			 M179.92,23.906L179.92,23.906c-1.115,0-2.076-0.172-2.854-0.512c-0.621-0.271-2.928-2.086-3.85-3.201
			c0.917-0.178,5.559-0.824,14.865,1.31c-0.007,0.004-0.012,0.007-0.018,0.011C186.251,22.666,182.926,23.906,179.92,23.906z"/>
	</g>
</g>
</svg>
